<svg xmlns="http://www.w3.org/2000/svg" version="1.1" xmlns:xlink="http://www.w3.org/1999/xlink" xmlns:svgjs="http://svgjs.dev/svgjs" width="1000" height="277" viewBox="0 0 1000 277"><g transform="matrix(1,0,0,1,-0.6060606060606233,0.36976528427288713)"><svg viewBox="0 0 396 110" data-background-color="#50a060" preserveAspectRatio="xMidYMid meet" height="277" width="1000" xmlns="http://www.w3.org/2000/svg" xmlns:xlink="http://www.w3.org/1999/xlink"><g id="tight-bounds" transform="matrix(1,0,0,1,0.2400000000000091,-0.146530883683738)"><svg viewBox="0 0 395.52 110.29336908321446" height="110.29336908321446" width="395.52"><g><svg viewBox="0 0 397.4975999999999 110.84483592863052" height="110.29336908321446" width="395.52"><g><rect width="397.4975999999999" height="3.395030924584138" x="0" y="60.91544903064986" fill="#096a2e" opacity="1" stroke-width="0" stroke="transparent" fill-opacity="1" class="rect-o-0" data-fill-palette-color="secondary" rx="1%" id="o-0" data-palette-color="#096a2e"></rect></g><g transform="matrix(1,0,0,1,0.9887999999999693,73.19799546461655)"><svg viewBox="0 0 395.52 37.64684046401396" height="37.64684046401396" width="395.52"><g id="textblocktransform"><svg viewBox="0 0 395.52 37.64684046401396" height="37.64684046401396" width="395.52" id="textblock"><g><svg viewBox="0 0 395.52 37.64684046401396" height="37.64684046401396" width="395.52"><g transform="matrix(1,0,0,1,0,0)"><svg width="395.52" viewBox="2.8499999046325684 -37.75 400.82000732421875 38.15416717529297" height="37.64684046401396" data-palette-color="#096a2e"><path d="M33.75-18L33.75-3.2Q33-2.55 31.65-1.9 30.3-1.25 28.63-0.75 26.95-0.25 25.2 0.08 23.45 0.4 21.9 0.4L21.9 0.4Q17.5 0.4 14-0.95 10.5-2.3 8-4.7 5.5-7.1 4.17-10.33 2.85-13.55 2.85-17.35L2.85-17.35Q2.85-22 4.35-25.6 5.85-29.2 8.43-31.68 11-34.15 14.38-35.43 17.75-36.7 21.45-36.7L21.45-36.7Q24.7-36.7 27.48-35.95 30.25-35.2 32.25-34L32.25-34 30.5-29.1Q29.5-29.65 28.03-30.18 26.55-30.7 25-31 23.45-31.3 22.15-31.3L22.15-31.3Q18.95-31.3 16.43-30.38 13.9-29.45 12.1-27.7 10.3-25.95 9.33-23.45 8.35-20.95 8.35-17.8L8.35-17.8Q8.35-14.95 9.35-12.58 10.35-10.2 12.15-8.47 13.95-6.75 16.45-5.83 18.95-4.9 22-4.9L22-4.9Q23.75-4.9 25.45-5.25 27.15-5.6 28.35-6.25L28.35-6.25 28.35-12.85 21.35-12.85 21.35-18 33.75-18ZM42.8 0L42.8-36.3 48.15-36.3 48.15 0 42.8 0ZM55.7-31.15L55.7-36.3 79.9-36.3 79.9-31.15 70.34-31.15 70.34 0 65 0 65-31.15 55.7-31.15ZM111.19-36.3L116.54-36.3 116.54 0 111.19 0 111.19-15.65 92.79-15.65 92.79 0 87.44 0 87.44-36.3 92.79-36.3 92.79-20.75 111.19-20.75 111.19-36.3ZM131.54-36.3L131.54-12.95Q131.54-10.65 132.69-8.8 133.84-6.95 135.74-5.85 137.64-4.75 139.99-4.75L139.99-4.75Q142.49-4.75 144.44-5.85 146.39-6.95 147.52-8.8 148.64-10.65 148.64-12.95L148.64-12.95 148.64-36.3 153.89-36.3 153.89-12.8Q153.89-8.85 152.04-5.88 150.19-2.9 147.04-1.25 143.89 0.4 139.99 0.4L139.99 0.4 139.99 0.4Q136.19 0.4 133.04-1.25 129.89-2.9 128.07-5.88 126.24-8.85 126.24-12.8L126.24-12.8 126.24-36.3 131.54-36.3ZM163.54-36.3L173.19-36.3Q178.69-36.3 181.86-34.05 185.04-31.8 185.04-27.15L185.04-27.15Q185.04-24.15 183.66-22 182.29-19.85 179.86-18.68 177.44-17.5 174.14-17.35L174.14-17.35 173.34-20.2Q177.19-20.1 180.21-18.88 183.24-17.65 185.01-15.48 186.79-13.3 186.79-10.3L186.79-10.3Q186.79-7.55 185.76-5.58 184.74-3.6 183.01-2.38 181.29-1.15 179.11-0.58 176.94 0 174.59 0L174.59 0 163.54 0 163.54-36.3ZM168.89-20.6L174.14-20.6Q176.94-20.6 178.24-22.2 179.54-23.8 179.54-26L179.54-26Q179.54-28.7 177.86-29.93 176.19-31.15 173.44-31.15L173.44-31.15 168.89-31.15 168.89-20.6ZM168.89-4.95L174.34-4.95Q176.29-4.95 177.86-5.53 179.44-6.1 180.36-7.28 181.29-8.45 181.29-10.25L181.29-10.25Q181.29-12.25 180.21-13.38 179.14-14.5 177.46-14.98 175.79-15.45 173.99-15.45L173.99-15.45 168.89-15.45 168.89-4.95ZM231.58-33.45L229.53-29.35Q227.63-30.35 225.43-31.05 223.23-31.75 221.18-31.75L221.18-31.75Q218.38-31.75 216.73-30.48 215.08-29.2 215.08-27L215.08-27Q215.08-25.45 216.18-24.3 217.28-23.15 219.03-22.3 220.78-21.45 222.73-20.7L222.73-20.7Q224.38-20.1 226.01-19.28 227.63-18.45 228.96-17.25 230.28-16.05 231.06-14.28 231.83-12.5 231.83-9.95L231.83-9.95Q231.83-7.05 230.41-4.7 228.98-2.35 226.31-0.98 223.63 0.4 219.83 0.4L219.83 0.4Q217.53 0.4 215.36-0.13 213.18-0.65 211.26-1.53 209.33-2.4 207.78-3.45L207.78-3.45 210.18-7.6Q211.38-6.75 212.93-5.98 214.48-5.2 216.16-4.75 217.83-4.3 219.33-4.3L219.33-4.3Q220.98-4.3 222.58-4.88 224.18-5.45 225.23-6.68 226.28-7.9 226.28-9.9L226.28-9.9Q226.28-11.6 225.36-12.78 224.43-13.95 222.91-14.8 221.38-15.65 219.63-16.3L219.63-16.3Q217.93-16.95 216.18-17.75 214.43-18.55 212.93-19.68 211.43-20.8 210.51-22.48 209.58-24.15 209.58-26.6L209.58-26.6Q209.58-29.5 210.96-31.68 212.33-33.85 214.78-35.1 217.23-36.35 220.43-36.5L220.43-36.5Q224.08-36.5 226.78-35.6 229.48-34.7 231.58-33.45L231.58-33.45ZM239.73 0L239.73-36.3 263.58-36.3 263.58-31.15 245.08-31.15 245.08-20.8 261.53-20.8 261.53-15.65 245.08-15.65 245.08-5.15 264.28-5.15 264.28 0 239.73 0ZM274.03 0L268.78 0 284.73-37.75 285.03-37.75 300.98 0 294.88 0 283.28-29.4 287.13-31.95 274.03 0ZM276.88-9L278.48-13.6 291.38-13.6 293.23-9 276.88-9ZM307.48-36.3L317.43-36.3Q320.28-36.3 322.7-35.52 325.13-34.75 326.85-33.3 328.58-31.85 329.55-29.73 330.53-27.6 330.53-24.8L330.53-24.8Q330.53-22.65 329.88-20.55 329.23-18.45 327.78-16.75 326.33-15.05 323.98-14.03 321.63-13 318.13-13L318.13-13 312.83-13 312.83 0 307.48 0 307.48-36.3ZM312.83-18.1L318.03-18.1Q320.08-18.1 321.45-18.75 322.83-19.4 323.6-20.38 324.38-21.35 324.7-22.48 325.03-23.6 325.03-24.65L325.03-24.65Q325.03-25.65 324.7-26.75 324.38-27.85 323.6-28.85 322.83-29.85 321.53-30.5 320.23-31.15 318.33-31.15L318.33-31.15 312.83-31.15 312.83-18.1ZM317.83-14.85L324.18-15 333.58 0 327.38 0 317.83-14.85ZM364.32-7.55L366.57-2.75Q365.77-2.2 364.2-1.43 362.62-0.65 360.5-0.1 358.37 0.45 355.82 0.4L355.82 0.4Q351.57 0.35 348.2-1.1 344.82-2.55 342.47-5.08 340.12-7.6 338.85-10.88 337.57-14.15 337.57-17.85L337.57-17.85Q337.57-21.95 338.87-25.38 340.17-28.8 342.6-31.35 345.02-33.9 348.3-35.3 351.57-36.7 355.47-36.7L355.47-36.7Q358.82-36.7 361.52-35.8 364.22-34.9 366.07-33.7L366.07-33.7 363.97-28.7Q362.52-29.7 360.4-30.63 358.27-31.55 355.67-31.55L355.67-31.55Q353.12-31.55 350.85-30.53 348.57-29.5 346.85-27.68 345.12-25.85 344.12-23.43 343.12-21 343.12-18.15L343.12-18.15Q343.12-15.25 344.02-12.8 344.92-10.35 346.6-8.55 348.27-6.75 350.62-5.75 352.97-4.75 355.92-4.75L355.92-4.75Q358.72-4.75 360.85-5.6 362.97-6.45 364.32-7.55L364.32-7.55ZM398.32-36.3L403.67-36.3 403.67 0 398.32 0 398.32-15.65 379.92-15.65 379.92 0 374.57 0 374.57-36.3 379.92-36.3 379.92-20.75 398.32-20.75 398.32-36.3Z" opacity="1" transform="matrix(1,0,0,1,0,0)" fill="#096a2e" class="wordmark-text-0" data-fill-palette-color="primary" id="text-0"></path></svg></g></svg></g></svg></g></svg></g><g transform="matrix(1,0,0,1,138.84916287323895,0)"><svg viewBox="0 0 119.799274253522 52.0279335212673" height="52.0279335212673" width="119.799274253522"><g><svg xmlns="http://www.w3.org/2000/svg" xmlns:xlink="http://www.w3.org/1999/xlink" xml:space="preserve" style="shape-rendering:geometricPrecision;text-rendering:geometricPrecision;image-rendering:optimizeQuality;" viewBox="0.0000020265579223632812 0.0000027120113372802734 14.727499008178711 7.38195276260376" x="8" y="0" fill-rule="evenodd" clip-rule="evenodd" width="103.799274253522" height="52.0279335212673" class="icon-icon-0" data-fill-palette-color="accent" id="icon-0"><g fill="#c9efc7" data-fill-palette-color="accent"><path class="" d="M1.757 3.091c-0.313 0.444-0.296 1.331-0.417 1.95-0.153 0.784-0.711 1.203-1.34 1.534 0.188-0.771 0.348-1.542 0.412-2.313 0.078-0.953-0.06-0.891 0.767-1.575 1.159-0.961 3.04-1.741 5.848-2.29 2.456-0.406 5.049-0.453 7.701-0.351-0.89 1.809-3.733 1.961-7.203 1.581-1.811 0.02-3.495-0.488-5.768 1.464z m8.33 2.781c-3.895 2.038-7.803-2.284-9.165 0.688 2.104-1.831 5.079 3.183 9.165-0.688z m2.489-2.547c-4.49 2.72-9.502-0.792-10.907 1.859 3.412-1.235 7.765 2.753 10.907-1.859z m0.834-1.478c-3.944 1.761-10.043-1.402-11.565 2.239 3.106-1.808 8.446 1.438 11.565-2.239z" fill="#c9efc7" data-fill-palette-color="accent"></path></g></svg></g></svg></g><g><rect width="62.31604287323899" height="3.395030924584138" y="47.63290259668316" x="258.64843712676094" fill="#096a2e" data-fill-palette-color="secondary"></rect><rect width="62.31604287323899" height="3.395030924584138" y="47.63290259668316" x="76.53311999999997" fill="#096a2e" data-fill-palette-color="secondary"></rect></g></svg></g><defs></defs></svg><rect width="395.52" height="110.29336908321446" fill="none" stroke="none" visibility="hidden"></rect></g></svg></g></svg>